<?xml version="1.0" encoding="utf-8"?>
<!-- Generator: Adobe Illustrator 16.0.3, SVG Export Plug-In . SVG Version: 6.00 Build 0)  -->
<!DOCTYPE svg PUBLIC "-//W3C//DTD SVG 1.1//EN" "http://www.w3.org/Graphics/SVG/1.1/DTD/svg11.dtd">
<svg version="1.1" id="logo2_xA0_Imagen_1_" xmlns="http://www.w3.org/2000/svg" xmlns:xlink="http://www.w3.org/1999/xlink"
	 x="0px" y="0px" width="1535px" height="721px" viewBox="0 0 1535 721" enable-background="new 0 0 1535 721" xml:space="preserve"
	>
<g>
	<g>
		<path fill-rule="evenodd" clip-rule="evenodd" fill="#FEFEFE" d="M768.607,722c-254.305,0-508.61-0.014-762.915,0.118
			c-4.176,0.002-4.797-0.99-4.795-4.925C1.012,480.053,1.013,242.913,0.892,5.772C0.89,1.766,1.625,0.886,5.727,0.887
			c508.444,0.12,1016.888,0.121,1525.331-0.01c4.385-0.001,5.044,1.102,5.042,5.18c-0.111,237.141-0.109,474.28-0.011,711.421
			c0.002,3.692-0.76,4.621-4.565,4.62C1277.219,721.989,1022.913,722,768.607,722z M121.64,154.225
			c-8.664,0-17.33,0.102-25.991-0.058c-2.832-0.052-3.74,0.808-3.674,3.669c0.2,8.66,0.247,17.328,0.142,25.99
			c-0.2,16.481,0.664,32.984-0.996,49.438c-0.486,4.824-2.439,9.031-5.87,12.301c-7.11,6.774-14.417,13.346-21.727,19.907
			c-10.281,9.231-20.862,18.141-30.89,27.636c-8.087,7.657-10.003,19.472-5.757,28.837c3.8,8.381,13.392,16.54,25.594,15.198
			c7.693-0.847,13.743-4.684,19.301-9.448c20.342-17.438,40.601-34.975,60.806-52.571c25.98-22.626,51.907-45.312,77.797-68.039
			c12.259-10.762,24.355-21.708,36.575-32.514c5.566-4.923,10.152-5.002,15.952-0.403c2.085,1.653,4.061,3.445,6.055,5.21
			c12.713,11.253,25.393,22.542,38.128,33.769c23.849,21.024,47.797,41.937,71.574,63.042
			c20.533,18.228,41.069,36.449,62.173,54.014c6.635,5.522,14.465,7.146,22.861,5.172c10.401-2.445,16.604-9.339,18.917-19.506
			c2.262-9.94-1.044-18.325-8.606-25.02c-14.207-12.578-28.425-25.145-42.707-37.638c-24.922-21.801-49.917-43.518-74.843-65.314
			c-27.314-23.886-54.48-47.94-81.919-71.681c-12.544-10.854-25.71-11.85-38.826-0.197c-14.809,13.156-29.649,26.278-44.565,39.313
			c-11.902,10.4-23.934,20.651-35.924,30.951c-0.963,0.827-1.922,2.331-3.313,1.639c-1.412-0.702-0.632-2.41-0.64-3.645
			c-0.06-8.663-0.195-17.333,0.072-25.989c0.105-3.406-0.917-4.237-4.211-4.146C138.639,154.379,130.137,154.221,121.64,154.225z
			 M283.301,618.926c12.194-1.244,24.014-2.623,35.706-4.961c35.164-7.029,66.484-21.706,92.346-46.945
			c21.493-20.975,35.938-46.376,45.625-74.591c8.3-24.178,12.552-49.089,13.34-74.655c0.309-10.027,0.645-10.414-8.591-8.667
			c-24.091,4.556-48.273,8.646-72.035,14.89c-37.352,9.813-64.977,31.324-82.317,66.098
			c-16.745,33.579-26.236,68.998-28.282,106.413c-0.248,4.529-1.759,9.038-0.723,14.381c20.938-18.699,40.871-37.507,60.399-56.79
			c19.563-19.317,36.746-40.758,55.585-60.718C362.666,539.781,323.146,579.242,283.301,618.926z M747.852,469.173
			c1.562,7.367,2.285,14.474,2.168,21.647c-0.387,23.655,1.025,47.265,2.03,70.881c0.227,5.315,1.933,10.247,7.334,12.586
			c9.803,4.245,19.646,4.042,29.396-0.334c1.602-0.719,2.8-1.656,2.697-3.714c-0.566-11.46-0.845-22.939-1.651-34.381
			c-1.448-20.546-3.128-41.076-4.852-61.601c-1.265-15.052-2.668-30.094-4.183-45.123c-0.71-7.047-4.466-11.808-11.308-14.289
			c-10.443-3.788-20.717-3.509-31.157,0.034c-3.505,1.19-5.34,3.12-6.379,6.623c-4.364,14.701-8.358,29.497-12.037,44.383
			c-2.472,10.005-5.091,19.974-7.705,30.198c-1.594-1.062-1.869-2.296-2.189-3.532c-5.002-19.311-10.388-38.513-15.775-57.718
			c-3.832-13.658-11.575-21.625-25.928-22.61c-9.54-0.654-18.609,0.507-26.059,7.274c-5.574,5.065-3.865,11.932-4.196,18.22
			c-0.943,17.941-1.696,35.893-2.584,53.838c-1.125,22.759-2.446,45.51-3.404,68.276c-0.418,9.92,4.613,15.726,14.399,16.932
			c6.278,0.773,12.607,0.434,18.881-0.816c4.318-0.86,5.685-3.126,5.752-7.545c0.48-31.448,1.225-62.893,1.949-94.337
			c0.052-2.238-0.545-4.694,1.438-6.936c0.509,1.584,1.057,2.926,1.37,4.32c4.533,20.122,10.702,39.803,16.039,59.706
			c1.017,3.791,3.22,6.604,6.817,8.021c9.738,3.834,19.405,3.809,28.709-1.355c1.962-1.089,3.243-2.716,3.881-5.352
			c3.337-13.79,7.117-27.473,10.736-41.194C743.985,483.91,745.915,476.541,747.852,469.173z M788.688,288.457
			c0-14.333-0.019-28.665,0.023-42.998c0.005-1.718-0.517-3.543,1.622-4.801c5.595-3.29,11.221-4.741,17.458-1.794
			c5.991,2.832,7.417,7.786,7.377,13.9c-0.133,20.331-0.101,40.664-0.002,60.996c0.018,3.637,0.396,7.318,1.062,10.896
			c1.227,6.585,5.717,11.301,11.603,12.188c7.27,1.094,14.506,0.612,21.786-0.531c3.699-0.581,4.477-2.053,4.46-5.51
			c-0.133-27.831,0.069-55.665-0.212-83.494c-0.048-4.768,1.786-7.025,5.799-8.371c1.569-0.526,3.125-1.138,4.734-1.489
			c6.591-1.442,14.479,3.182,15.515,9.281c0.608,3.587,0.914,7.267,0.934,10.907c0.114,20.996-0.003,41.994,0.183,62.989
			c0.078,8.874,4.703,15.085,11.895,16.168c7.426,1.118,14.86,0.709,22.306-0.536c3.327-0.556,3.873-2.057,3.862-4.991
			c-0.098-28.164,0.291-56.337-0.232-84.492c-0.294-15.824-5.765-29.911-20.483-37.979c-17.438-9.56-35.478-9.221-52.722,0.476
			c-6.037,3.396-10.701,5.407-16.098-0.209c-0.976-1.016-2.564-1.516-3.948-2.053c-24.161-9.381-46.179-4.692-66.473,10.403
			c-5.448,4.053-8.884,9.732-8.928,16.58c-0.184,28.496-0.256,56.996,0.039,85.49c0.099,9.599,5.082,16.097,12.103,17.304
			c7.093,1.219,14.212,0.554,21.331-0.227c3.918-0.429,5.171-2.125,5.102-6.107C788.538,316.458,788.687,302.456,788.688,288.457z
			 M1115.967,206.764c-0.618-11.436,0.582-22.283-0.938-33.055c-1.061-7.513-4.777-12.083-11.861-13.437
			c-7.937-1.516-15.852-0.491-23.698,1.16c-2.432,0.512-2.427,2.13-2.425,4.072c0.032,46.321-0.037,92.643,0.082,138.963
			c0.023,9.182,4.04,16.572,11.507,22.127c15.047,11.191,31.894,14.516,50.294,12.534c23.327-2.512,39.693-14.085,47.872-36.188
			c6.626-17.906,6.934-36.506,2.746-54.882c-4.145-18.186-13.54-33.149-31.266-41.299
			C1144.403,200.381,1130.327,200.785,1115.967,206.764z M149.572,512.736c-16.921-0.13-33.508,3.487-49.449,10.23
			c-2.218,0.938-4.71,1.283-2.697,5.015c8.909,16.514,16.831,33.552,26.442,49.7c7.21,12.115,15.537,23.33,26.766,31.981
			c16.622,12.806,36.371,15.703,56.475,16.173c19.903,0.465,38.56-5.861,57.072-12.411c2.491-0.882,2.42-2.015,1.528-4.039
			c-8.733-19.815-18.198-39.24-32.242-55.951C211.711,527.547,184.644,512.286,149.572,512.736z M1057.156,269.126
			c-0.467-3.185-0.205-8.474-0.964-13.79c-3.982-27.896-23.729-50.145-51.716-52.756c-23.406-2.185-45.669,7.822-56.64,28.09
			c-8.591,15.87-10.468,32.823-8.969,50.551c2.545,30.084,21.728,56.21,53.296,58.163c22.771,1.409,41.676-5.178,54.352-25.021
			C1054.868,301.288,1057.57,286.562,1057.156,269.126z M655.974,288.85c0-11.664,0-23.328,0-34.993
			c0-13.875,0-13.875,13.662-16.448c8.98-1.69,16.164,3.356,17.47,12.398c0.378,2.62,0.536,5.291,0.554,7.939
			c0.143,21.325,0.165,42.65,0.363,63.975c0.072,7.799,4.996,14.048,11.889,15.093c7.097,1.076,14.204,0.644,21.323-0.357
			c3.651-0.513,4.895-1.831,4.868-5.703c-0.188-27.493,0.249-54.995-0.236-82.481c-0.274-15.521-6.302-28.762-19.776-37.613
			c-7.944-5.218-16.907-7.39-26.33-8.084c-18.061-1.332-34.968,1.791-50.196,12.163c-8.359,5.693-12.34,13.287-12.236,23.546
			c0.255,25.159,0.063,50.322,0.109,75.484c0.006,3.319,0.213,6.655,0.58,9.955c0.75,6.752,5.485,12.203,11.705,13.085
			c7.433,1.053,14.862,0.746,22.293-0.591c3.097-0.557,4.068-1.734,4.031-4.876C655.88,317.179,655.974,303.014,655.974,288.85z
			 M883.999,493.683c0,13.489,0,26.979,0,40.468c0,7.694,0.079,8.191-7.459,9.392c-14.455,2.304-23.423-1.761-24.412-17.878
			c-0.122-1.992-0.088-3.995-0.089-5.993c-0.013-18.984,0.067-37.97-0.059-56.953c-0.067-10.292-4.933-16.052-14.615-17.449
			c-6.813-0.983-13.62-0.075-20.375,0.897c-2.474,0.356-3.284,1.936-3.267,4.553c0.182,27.474-0.522,54.979,0.57,82.412
			c0.704,17.658,8.696,32.272,25.738,40.072c18.249,8.352,37.355,8.313,55.905,2.354c24.061-7.729,27.199-15.653,26.882-36.713
			c-0.351-23.31-0.047-46.629-0.115-69.943c-0.011-3.639-0.282-7.306-0.789-10.909c-0.909-6.467-5.381-10.859-11.965-12.271
			c-7.648-1.641-15.235-0.531-22.812,0.493c-2.459,0.332-3.243,1.882-3.215,4.504C884.081,465.038,883.999,479.36,883.999,493.683z
			 M1437.343,288.355c2.407-0.466,4.808-0.962,7.219-1.391c16.626-2.957,33.29-5.718,49.87-8.919
			c9.455-1.825,13.095-6.282,14.941-15.462c1.125-5.587,0.302-11.092-0.737-16.332c-5.372-27.092-25.488-41.355-46.476-43.607
			c-24.111-2.587-46.285,9.265-56.355,31.24c-8.001,17.461-8.288,35.656-5.279,54.074c2.382,14.581,8.67,27.308,19.906,37.316
			c11.798,10.51,26.05,14.284,41.302,14.398c11.292,0.084,22.554-1.177,32.681-7.064c12.196-7.09,14.299-23.656,4.294-33.591
			c-1.404-1.394-2.395-2.129-4.569-0.786c-10.051,6.209-21.13,8.367-32.866,7.786
			C1449.397,305.431,1440.059,298.706,1437.343,288.355z M1055.428,527.043c0-11.99-0.021-23.981,0.006-35.972
			c0.033-15.462-4.153-29.12-16.832-39.065c-9.532-7.477-20.691-9.978-32.528-10.421c-16.791-0.628-32.655,2.305-46.722,12.062
			c-6.428,4.459-12.185,9.878-12.255,18.272c-0.249,29.807-0.242,59.617,0.002,89.424c0.073,8.981,5.902,14.908,14.404,15.499
			c6.293,0.438,12.599,0.406,18.905-0.694c3.65-0.637,4.806-1.99,4.781-5.771c-0.177-26.978-0.095-53.957-0.095-80.936
			c0-8.445,1.157-10.291,9.706-11.904c12.927-2.439,22.655,0.494,22.306,17.163c-0.442,21.141-0.159,42.298-0.085,63.447
			c0.039,11.214,5.515,18.082,15.088,18.718c5.959,0.396,11.921,0.234,17.917-0.584c4.534-0.618,5.579-2.491,5.501-6.772
			C1055.268,555.356,1055.43,541.198,1055.428,527.043z M1276.069,242.205c0,25.313-0.041,50.624,0.02,75.937
			c0.026,10.735,5.035,17.754,13.21,18.795c6.791,0.865,13.499,0.307,20.286-0.621c4.41-0.603,5.231-2.379,5.221-6.423
			c-0.132-48.291-0.07-96.582-0.115-144.874c-0.003-3.652-0.307-7.316-0.679-10.954c-0.84-8.199-5.926-13.103-14.131-14.129
			c-6.515-0.815-12.867,0.121-19.286,1.012c-3.467,0.481-4.646,1.655-4.619,5.324
			C1276.154,191.582,1276.069,216.895,1276.069,242.205z M1339.997,265.029c0,17.479-0.043,34.958,0.016,52.438
			c0.036,11.002,5.082,18.415,13.212,19.447c6.775,0.859,13.491,0.332,20.278-0.546c4.681-0.605,5.4-2.661,5.381-6.799
			c-0.149-32.794-0.055-65.589-0.119-98.383c-0.008-4.138-0.12-8.344-0.86-12.396c-1.072-5.872-4.137-10.33-10.443-11.894
			c-8.465-2.099-16.773-0.833-25.133,0.679c-3.095,0.559-2.31,2.69-2.313,4.516C1339.984,229.738,1339.997,247.384,1339.997,265.029
			z M1250.857,279.332c0-13.479,0.001-26.96-0.001-40.439c-0.001-6.312,0.128-12.615-0.825-18.901
			c-1.272-8.396-6.364-13.362-14.852-13.979c-5.981-0.435-11.903-0.015-17.854,0.922c-3.855,0.607-5.5,1.547-5.466,6.073
			c0.254,33.947,0.166,67.898,0.097,101.848c-0.007,3.528,0.421,6.973,1.077,10.39c1.256,6.538,6.424,11.029,13.027,11.765
			c6.813,0.758,13.519,0.268,20.27-0.867c3.428-0.576,4.65-1.787,4.611-5.386C1250.754,313.616,1250.857,296.474,1250.857,279.332z
			 M592.226,276.597c-0.062,0-0.123,0-0.185,0c0-18.162,0.099-36.326-0.043-54.487c-0.066-8.493-4.351-14.035-12.381-15.641
			c-7.924-1.585-15.865-0.528-23.72,1.219c-2.182,0.485-1.883,1.907-1.885,3.367c-0.005,5.499-0.003,10.999-0.003,16.498
			c0.003,30.662-0.035,61.324,0.03,91.986c0.023,10.803,5.582,16.629,16.115,17.619c6.013,0.565,11.869-0.212,17.802-0.981
			c3.488-0.452,4.354-1.815,4.33-5.097C592.159,312.92,592.226,294.758,592.226,276.597z M238.954,438.445
			c0-9.498-0.097-18.998,0.059-28.494c0.047-2.862-0.426-4.071-3.736-4.035c-16.662,0.183-33.327,0.135-49.99,0.031
			c-2.56-0.016-3.438,0.609-3.413,3.31c0.142,15.496-0.043,30.995,0.171,46.489c0.126,9.17,6.371,15.259,15.45,15.354
			c12.497,0.132,24.998-0.09,37.492,0.129c3.467,0.061,4.086-1.202,4.03-4.29C238.843,457.444,238.954,447.944,238.954,438.445z
			 M238.957,347.452c0-9.332-0.137-18.667,0.074-27.995c0.075-3.299-0.52-4.63-4.245-4.552c-12.16,0.253-24.328,0.042-36.493,0.112
			c-8.962,0.051-16.168,7.031-16.271,16.054c-0.172,15.163-0.005,30.329-0.15,45.492c-0.027,2.828,0.766,3.665,3.621,3.644
			c16.497-0.128,32.996-0.164,49.492,0.021c3.455,0.039,4.093-1.184,4.036-4.282C238.845,366.451,238.957,356.95,238.957,347.452z
			 M267.933,347.452c0,9.649,0.071,19.299-0.047,28.946c-0.032,2.581,0.35,3.842,3.431,3.815
			c16.801-0.146,33.604-0.097,50.407-0.037c2.188,0.008,3.302-0.36,3.282-2.964c-0.117-14.805,0.29-29.623-0.187-44.413
			c-0.388-12.03-8.96-18.527-19.362-17.943c-11.277,0.632-22.618,0.222-33.929,0.081c-2.761-0.034-3.707,0.69-3.656,3.571
			C268.042,328.154,267.937,337.804,267.933,347.452z M267.926,438.479c0,9.813,0.09,19.628-0.06,29.438
			c-0.041,2.651,0.756,3.46,3.374,3.341c4.648-0.211,9.319-0.271,13.965-0.051c2.87,0.137,4.396-0.784,5.683-3.435
			c6.836-14.078,14.793-27.637,25.942-38.615c5.995-5.903,8.001-11.837,7.292-19.688c-0.256-2.838-0.991-3.545-3.724-3.525
			c-16.299,0.115-32.601,0.123-48.9-0.006c-2.823-0.021-3.674,0.745-3.624,3.602C268.045,419.184,267.939,428.833,267.926,438.479z
			 M593.984,170.229c0-1.33,0.076-2.664-0.012-3.988c-0.621-9.416-7.242-17.466-15.847-19.313
			c-9.994-2.144-18.424,1.516-22.953,10.338c-4.175,8.132-4.267,16.589-0.396,24.815c4.463,9.486,13.428,13.515,23.466,11.033
			C588.161,190.662,594.015,182.179,593.984,170.229z M1252.006,170.217c0-1.496,0.07-2.996-0.012-4.487
			c-0.417-7.565-6.519-15.916-13.321-18.295c-8.714-3.047-17.257-0.943-22.861,6.174c-6.212,7.889-7.334,16.789-3.859,26.179
			c4.128,11.153,13.962,16.203,25.396,13.19C1246.299,190.619,1252.08,181.715,1252.006,170.217z M1338.399,170.232
			c0.15,1.482,0.264,3.646,0.603,5.772c1.49,9.327,8.676,16.401,18.096,17.906c7.794,1.245,16.684-3.421,20.487-11.2
			c3.233-6.61,3.815-13.607,1.687-20.743c-3.616-12.126-13.461-17.886-25.624-14.984
			C1345.011,149.044,1338.74,158.34,1338.399,170.232z"/>
		<path fill-rule="evenodd" clip-rule="evenodd" fill="#2D3B4F" d="M121.64,154.223c8.498-0.002,17,0.156,25.49-0.081
			c3.293-0.092,4.316,0.739,4.211,4.146c-0.268,8.656-0.132,17.326-0.072,25.989c0.008,1.234-0.771,2.942,0.64,3.645
			c1.391,0.692,2.349-0.812,3.313-1.639c11.99-10.3,24.022-20.551,35.924-30.951c14.916-13.034,29.756-26.156,44.565-39.313
			c13.115-11.652,26.282-10.656,38.826,0.197c27.439,23.74,54.605,47.795,81.919,71.681c24.925,21.797,49.92,43.514,74.843,65.314
			c14.282,12.493,28.5,25.06,42.707,37.638c7.563,6.694,10.868,15.079,8.606,25.02c-2.313,10.167-8.516,17.061-18.917,19.506
			c-8.396,1.974-16.227,0.351-22.861-5.172c-21.104-17.564-41.64-35.786-62.173-54.014c-23.777-21.105-47.725-42.018-71.574-63.042
			c-12.735-11.227-25.416-22.516-38.128-33.769c-1.994-1.765-3.97-3.557-6.055-5.21c-5.799-4.599-10.385-4.52-15.952,0.403
			c-12.22,10.806-24.316,21.752-36.575,32.514c-25.89,22.728-51.817,45.413-77.797,68.039
			c-20.205,17.597-40.464,35.133-60.806,52.571c-5.558,4.765-11.608,8.602-19.301,9.448c-12.203,1.342-21.794-6.817-25.594-15.198
			c-4.246-9.365-2.331-21.18,5.757-28.837c10.028-9.495,20.609-18.404,30.89-27.636c7.309-6.562,14.616-13.133,21.727-19.907
			c3.431-3.27,5.383-7.477,5.87-12.301c1.66-16.454,0.796-32.957,0.996-49.438c0.105-8.662,0.059-17.33-0.142-25.99
			c-0.066-2.861,0.842-3.721,3.674-3.669C104.31,154.326,112.976,154.225,121.64,154.223z"/>
		<path fill-rule="evenodd" clip-rule="evenodd" fill="#5DD85D" d="M283.301,618.926c39.845-39.684,79.365-79.145,111.053-125.546
			c-18.839,19.96-36.022,41.4-55.585,60.718c-19.528,19.283-39.462,38.091-60.399,56.79c-1.036-5.343,0.475-9.852,0.723-14.381
			c2.046-37.415,11.537-72.834,28.282-106.413c17.341-34.773,44.966-56.284,82.317-66.098c23.762-6.243,47.944-10.334,72.035-14.89
			c9.235-1.747,8.899-1.36,8.591,8.667c-0.788,25.566-5.04,50.478-13.34,74.655c-9.687,28.215-24.132,53.616-45.625,74.591
			c-25.862,25.239-57.182,39.916-92.346,46.945C307.315,616.303,295.495,617.682,283.301,618.926z"/>
		<path fill-rule="evenodd" clip-rule="evenodd" fill="#454A4D" d="M747.852,469.173c-1.937,7.368-3.866,14.737-5.809,22.104
			c-3.619,13.722-7.399,27.404-10.736,41.194c-0.638,2.636-1.919,4.263-3.881,5.352c-9.304,5.164-18.971,5.189-28.709,1.355
			c-3.598-1.417-5.801-4.23-6.817-8.021c-5.337-19.903-11.506-39.584-16.039-59.706c-0.313-1.395-0.861-2.736-1.37-4.32
			c-1.983,2.241-1.387,4.697-1.438,6.936c-0.725,31.444-1.469,62.889-1.949,94.337c-0.067,4.419-1.434,6.685-5.752,7.545
			c-6.273,1.25-12.603,1.59-18.881,0.816c-9.786-1.206-14.817-7.012-14.399-16.932c0.958-22.767,2.279-45.518,3.404-68.276
			c0.888-17.945,1.641-35.896,2.584-53.838c0.331-6.288-1.378-13.154,4.196-18.22c7.449-6.768,16.519-7.929,26.059-7.274
			c14.353,0.985,22.096,8.952,25.928,22.61c5.388,19.205,10.773,38.407,15.775,57.718c0.32,1.236,0.596,2.471,2.189,3.532
			c2.614-10.225,5.233-20.193,7.705-30.198c3.679-14.886,7.673-29.682,12.037-44.383c1.039-3.503,2.874-5.433,6.379-6.623
			c10.44-3.543,20.714-3.822,31.157-0.034c6.842,2.481,10.598,7.242,11.308,14.289c1.515,15.029,2.918,30.071,4.183,45.123
			c1.724,20.524,3.403,41.055,4.852,61.601c0.807,11.441,1.085,22.921,1.651,34.381c0.103,2.058-1.096,2.995-2.697,3.714
			c-9.75,4.376-19.594,4.579-29.396,0.334c-5.401-2.339-7.107-7.271-7.334-12.586c-1.005-23.616-2.417-47.226-2.03-70.881
			C750.137,483.646,749.413,476.54,747.852,469.173z"/>
		<path fill-rule="evenodd" clip-rule="evenodd" fill="#464B4E" d="M788.688,288.457c-0.001,13.999-0.149,28.001,0.094,41.996
			c0.069,3.982-1.184,5.679-5.102,6.107c-7.119,0.78-14.238,1.445-21.331,0.227c-7.021-1.207-12.004-7.705-12.103-17.304
			c-0.295-28.494-0.223-56.994-0.039-85.49c0.044-6.848,3.479-12.527,8.928-16.58c20.294-15.096,42.312-19.784,66.473-10.403
			c1.384,0.537,2.973,1.037,3.948,2.053c5.396,5.616,10.061,3.604,16.098,0.209c17.244-9.696,35.283-10.035,52.722-0.476
			c14.719,8.067,20.189,22.154,20.483,37.979c0.523,28.155,0.135,56.328,0.232,84.492c0.011,2.935-0.535,4.436-3.862,4.991
			c-7.445,1.245-14.88,1.654-22.306,0.536c-7.191-1.083-11.816-7.294-11.895-16.168c-0.186-20.995-0.068-41.993-0.183-62.989
			c-0.02-3.641-0.325-7.32-0.934-10.907c-1.035-6.1-8.924-10.724-15.515-9.281c-1.609,0.352-3.165,0.963-4.734,1.489
			c-4.013,1.346-5.847,3.604-5.799,8.371c0.281,27.829,0.079,55.663,0.212,83.494c0.017,3.457-0.761,4.929-4.46,5.51
			c-7.28,1.144-14.517,1.625-21.786,0.531c-5.886-0.887-10.376-5.603-11.603-12.188c-0.666-3.577-1.044-7.259-1.062-10.896
			c-0.099-20.332-0.131-40.665,0.002-60.996c0.04-6.114-1.386-11.068-7.377-13.9c-6.237-2.947-11.863-1.496-17.458,1.794
			c-2.139,1.258-1.617,3.083-1.622,4.801C788.669,259.792,788.688,274.124,788.688,288.457z"/>
		<path fill-rule="evenodd" clip-rule="evenodd" fill="#464B4E" d="M1115.967,206.764c14.36-5.979,28.437-6.383,42.313-0.004
			c17.726,8.149,27.121,23.113,31.266,41.299c4.188,18.376,3.88,36.976-2.746,54.882c-8.179,22.104-24.545,33.677-47.872,36.188
			c-18.4,1.981-35.247-1.343-50.294-12.534c-7.467-5.555-11.483-12.945-11.507-22.127c-0.119-46.32-0.05-92.642-0.082-138.963
			c-0.002-1.942-0.007-3.561,2.425-4.072c7.847-1.651,15.762-2.676,23.698-1.16c7.084,1.354,10.801,5.924,11.861,13.437
			C1116.549,184.48,1115.349,195.328,1115.967,206.764z M1115.125,270.493c0,8.647,0.123,17.298-0.068,25.94
			c-0.065,2.938,0.88,4.669,3.579,5.711c12.72,4.911,27.458,3.11,32.213-15.143c2.804-10.763,2.776-21.724-0.037-32.5
			c-3.94-15.097-17.162-21.28-31.355-15.103c-3.106,1.352-4.579,2.978-4.432,6.652
			C1115.353,254.188,1115.127,262.345,1115.125,270.493z"/>
		<path fill-rule="evenodd" clip-rule="evenodd" fill="#5DD85D" d="M149.572,512.736c35.072-0.45,62.14,14.811,83.896,40.698
			c14.044,16.711,23.508,36.136,32.242,55.951c0.892,2.024,0.962,3.157-1.528,4.039c-18.512,6.55-37.169,12.876-57.072,12.411
			c-20.104-0.47-39.854-3.367-56.475-16.173c-11.229-8.651-19.556-19.866-26.766-31.981c-9.611-16.148-17.533-33.187-26.442-49.7
			c-2.013-3.731,0.479-4.077,2.697-5.015C116.063,516.224,132.65,512.606,149.572,512.736z"/>
		<path fill-rule="evenodd" clip-rule="evenodd" fill="#464B4E" d="M1057.156,269.126c0.414,17.436-2.288,32.162-10.641,45.237
			c-12.676,19.843-31.58,26.43-54.352,25.021c-31.568-1.953-50.751-28.079-53.296-58.163c-1.499-17.728,0.378-34.681,8.969-50.551
			c10.971-20.268,33.233-30.274,56.64-28.09c27.987,2.611,47.733,24.86,51.716,52.756
			C1056.951,260.652,1056.689,265.941,1057.156,269.126z M977.738,271.052c-0.275,8.229,0.559,16.282,4.458,23.687
			c3.352,6.366,8.644,10.099,15.972,10.098c7.42-0.001,12.935-3.878,15.645-10.469c6.324-15.379,6.347-31.111,0.114-46.52
			c-2.747-6.792-8.395-10.732-16.007-10.729c-7.585,0.003-12.826,4.015-16.078,10.653
			C978.245,255.112,977.462,263.006,977.738,271.052z"/>
		<path fill-rule="evenodd" clip-rule="evenodd" fill="#464B4E" d="M655.974,288.85c0,14.164-0.094,28.329,0.072,42.491
			c0.037,3.142-0.935,4.319-4.031,4.876c-7.431,1.337-14.86,1.644-22.293,0.591c-6.22-0.882-10.955-6.333-11.705-13.085
			c-0.367-3.3-0.574-6.636-0.58-9.955c-0.047-25.162,0.146-50.325-0.109-75.484c-0.104-10.259,3.877-17.853,12.236-23.546
			c15.229-10.372,32.136-13.495,50.196-12.163c9.423,0.694,18.386,2.866,26.33,8.084c13.475,8.852,19.502,22.093,19.776,37.613
			c0.485,27.486,0.048,54.988,0.236,82.481c0.026,3.872-1.217,5.19-4.868,5.703c-7.119,1.001-14.227,1.434-21.323,0.357
			c-6.893-1.045-11.816-7.294-11.889-15.093c-0.198-21.324-0.221-42.649-0.363-63.975c-0.018-2.648-0.176-5.319-0.554-7.939
			c-1.306-9.042-8.489-14.089-17.47-12.398c-13.662,2.573-13.662,2.573-13.662,16.448
			C655.974,265.521,655.974,277.186,655.974,288.85z"/>
		<path fill-rule="evenodd" clip-rule="evenodd" fill="#454A4D" d="M883.999,493.683c0-14.322,0.082-28.645-0.075-42.965
			c-0.028-2.622,0.756-4.172,3.215-4.504c7.576-1.024,15.163-2.134,22.812-0.493c6.584,1.412,11.056,5.805,11.965,12.271
			c0.507,3.604,0.778,7.271,0.789,10.909c0.068,23.314-0.235,46.634,0.115,69.943c0.317,21.06-2.821,28.983-26.882,36.713
			c-18.55,5.958-37.656,5.997-55.905-2.354c-17.042-7.8-25.034-22.414-25.738-40.072c-1.093-27.434-0.389-54.938-0.57-82.412
			c-0.018-2.617,0.793-4.196,3.267-4.553c6.755-0.973,13.562-1.881,20.375-0.897c9.683,1.397,14.548,7.157,14.615,17.449
			c0.126,18.983,0.046,37.969,0.059,56.953c0.001,1.998-0.033,4.001,0.089,5.993c0.989,16.117,9.957,20.182,24.412,17.878
			c7.538-1.2,7.459-1.697,7.459-9.392C883.999,520.661,883.999,507.172,883.999,493.683z"/>
		<path fill-rule="evenodd" clip-rule="evenodd" fill="#464B4E" d="M1437.343,288.355c2.716,10.351,12.055,17.075,23.93,17.663
			c11.736,0.581,22.815-1.577,32.866-7.786c2.175-1.343,3.165-0.607,4.569,0.786c10.005,9.935,7.902,26.501-4.294,33.591
			c-10.127,5.888-21.389,7.148-32.681,7.064c-15.252-0.114-29.504-3.889-41.302-14.398c-11.236-10.009-17.524-22.735-19.906-37.316
			c-3.009-18.418-2.722-36.613,5.279-54.074c10.07-21.976,32.244-33.827,56.355-31.24c20.987,2.252,41.104,16.516,46.476,43.607
			c1.039,5.24,1.862,10.745,0.737,16.332c-1.847,9.18-5.486,13.637-14.941,15.462c-16.58,3.201-33.244,5.962-49.87,8.919
			C1442.15,287.394,1439.75,287.89,1437.343,288.355z M1473.267,249.376c-0.215-6.578-7.896-13.908-15.073-14.385
			c-13.615-0.904-23.074,7.662-23.902,21.534c-0.109,1.822,0.277,2.44,2.15,2.075c11.55-2.253,23.111-4.443,34.664-6.682
			C1472.438,251.661,1473.82,251.304,1473.267,249.376z"/>
		<path fill-rule="evenodd" clip-rule="evenodd" fill="#454A4D" d="M1055.429,527.043c0.001,14.155-0.161,28.313,0.099,42.465
			c0.078,4.281-0.967,6.154-5.501,6.772c-5.996,0.818-11.958,0.98-17.917,0.584c-9.573-0.636-15.049-7.504-15.088-18.718
			c-0.074-21.149-0.357-42.307,0.085-63.447c0.35-16.669-9.379-19.603-22.306-17.163c-8.549,1.613-9.706,3.459-9.706,11.904
			c0,26.979-0.082,53.958,0.095,80.936c0.024,3.781-1.131,5.135-4.781,5.771c-6.307,1.101-12.612,1.132-18.905,0.694
			c-8.502-0.591-14.331-6.518-14.404-15.499c-0.244-29.807-0.251-59.617-0.002-89.424c0.07-8.395,5.827-13.813,12.255-18.272
			c14.066-9.757,29.931-12.689,46.722-12.062c11.837,0.443,22.996,2.944,32.528,10.421c12.679,9.945,16.865,23.604,16.832,39.065
			C1055.407,503.062,1055.428,515.053,1055.429,527.043z"/>
		<path fill-rule="evenodd" clip-rule="evenodd" fill="#474C4F" d="M1276.069,242.205c0-25.311,0.085-50.623-0.094-75.934
			c-0.026-3.669,1.152-4.843,4.619-5.324c6.419-0.891,12.771-1.827,19.286-1.012c8.205,1.026,13.291,5.93,14.131,14.129
			c0.372,3.638,0.676,7.302,0.679,10.954c0.045,48.292-0.017,96.583,0.115,144.874c0.011,4.044-0.811,5.82-5.221,6.423
			c-6.787,0.928-13.495,1.486-20.286,0.621c-8.175-1.041-13.184-8.06-13.21-18.795
			C1276.028,292.829,1276.069,267.518,1276.069,242.205z"/>
		<path fill-rule="evenodd" clip-rule="evenodd" fill="#464B4E" d="M1339.997,265.029c0-17.646-0.013-35.291,0.018-52.938
			c0.004-1.825-0.781-3.957,2.313-4.516c8.359-1.512,16.668-2.777,25.133-0.679c6.307,1.563,9.371,6.021,10.443,11.894
			c0.74,4.052,0.853,8.258,0.86,12.396c0.064,32.794-0.03,65.589,0.119,98.383c0.02,4.138-0.7,6.193-5.381,6.799
			c-6.787,0.878-13.503,1.405-20.278,0.546c-8.13-1.032-13.176-8.445-13.212-19.447
			C1339.954,299.987,1339.997,282.509,1339.997,265.029z"/>
		<path fill-rule="evenodd" clip-rule="evenodd" fill="#464B4E" d="M1250.857,279.332c0,17.142-0.104,34.284,0.084,51.424
			c0.039,3.599-1.184,4.81-4.611,5.386c-6.751,1.135-13.457,1.625-20.27,0.867c-6.604-0.735-11.771-5.227-13.027-11.765
			c-0.656-3.417-1.084-6.861-1.077-10.39c0.069-33.949,0.157-67.9-0.097-101.848c-0.034-4.526,1.61-5.466,5.466-6.073
			c5.951-0.937,11.873-1.356,17.854-0.922c8.487,0.617,13.579,5.584,14.852,13.979c0.953,6.286,0.824,12.59,0.825,18.901
			C1250.858,252.372,1250.857,265.853,1250.857,279.332z"/>
		<path fill-rule="evenodd" clip-rule="evenodd" fill="#454A4D" d="M592.226,276.597c0,18.161-0.066,36.323,0.062,54.483
			c0.023,3.281-0.842,4.645-4.33,5.097c-5.933,0.77-11.789,1.547-17.802,0.981c-10.533-0.99-16.092-6.816-16.115-17.619
			c-0.065-30.662-0.027-61.324-0.03-91.986c0-5.499-0.002-10.999,0.003-16.498c0.002-1.46-0.297-2.882,1.885-3.367
			c7.854-1.747,15.796-2.804,23.72-1.219c8.03,1.605,12.314,7.147,12.381,15.641c0.142,18.161,0.043,36.325,0.043,54.487
			C592.103,276.597,592.164,276.597,592.226,276.597z"/>
		<path fill-rule="evenodd" clip-rule="evenodd" fill="#454A4D" d="M238.954,438.445c0,9.499-0.11,18.999,0.063,28.494
			c0.056,3.088-0.563,4.351-4.03,4.29c-12.494-0.219-24.996,0.003-37.492-0.129c-9.079-0.096-15.323-6.185-15.45-15.354
			c-0.214-15.494-0.029-30.993-0.171-46.489c-0.025-2.7,0.853-3.325,3.413-3.31c16.663,0.104,33.329,0.151,49.99-0.031
			c3.31-0.036,3.784,1.173,3.736,4.035C238.856,419.447,238.954,428.947,238.954,438.445z"/>
		<path fill-rule="evenodd" clip-rule="evenodd" fill="#454A4D" d="M238.957,347.452c0,9.498-0.112,18.999,0.064,28.494
			c0.057,3.099-0.582,4.321-4.036,4.282c-16.496-0.186-32.995-0.149-49.492-0.021c-2.854,0.021-3.647-0.815-3.621-3.644
			c0.145-15.163-0.022-30.329,0.15-45.492c0.103-9.022,7.309-16.003,16.271-16.054c12.165-0.07,24.333,0.141,36.493-0.112
			c3.726-0.078,4.32,1.253,4.245,4.552C238.819,328.785,238.957,338.12,238.957,347.452z"/>
		<path fill-rule="evenodd" clip-rule="evenodd" fill="#454A4D" d="M267.935,347.452c0.002-9.648,0.107-19.298-0.063-28.943
			c-0.051-2.881,0.896-3.605,3.656-3.571c11.311,0.141,22.652,0.551,33.929-0.081c10.402-0.584,18.974,5.913,19.362,17.943
			c0.477,14.79,0.069,29.608,0.187,44.413c0.021,2.604-1.094,2.972-3.282,2.964c-16.802-0.06-33.605-0.109-50.407,0.037
			c-3.081,0.026-3.463-1.234-3.431-3.815C268.003,366.751,267.933,357.102,267.935,347.452z"/>
		<path fill-rule="evenodd" clip-rule="evenodd" fill="#454A4C" d="M267.933,438.479c0.006-9.646,0.112-19.296-0.059-28.939
			c-0.051-2.856,0.8-3.623,3.624-3.602c16.299,0.129,32.601,0.121,48.9,0.006c2.733-0.02,3.468,0.688,3.724,3.525
			c0.709,7.852-1.297,13.785-7.292,19.688c-11.149,10.979-19.106,24.537-25.942,38.615c-1.287,2.65-2.813,3.571-5.683,3.435
			c-4.646-0.22-9.317-0.16-13.965,0.051c-2.618,0.119-3.414-0.689-3.374-3.341C268.016,458.107,267.926,448.293,267.933,438.479z"/>
		<path fill-rule="evenodd" clip-rule="evenodd" fill="#464B4E" d="M593.984,170.229c0.03,11.949-5.823,20.433-15.742,22.886
			c-10.038,2.481-19.003-1.547-23.466-11.033c-3.87-8.227-3.778-16.684,0.396-24.815c4.529-8.822,12.959-12.481,22.953-10.338
			c8.604,1.847,15.226,9.896,15.847,19.313C594.061,167.565,593.984,168.899,593.984,170.229z"/>
		<path fill-rule="evenodd" clip-rule="evenodd" fill="#464B4E" d="M1252.006,170.217c0.074,11.498-5.707,20.402-14.658,22.761
			c-11.434,3.013-21.268-2.037-25.396-13.19c-3.475-9.39-2.353-18.29,3.859-26.179c5.604-7.117,14.147-9.221,22.861-6.174
			c6.803,2.379,12.904,10.729,13.321,18.295C1252.076,167.221,1252.006,168.721,1252.006,170.217z"/>
		<path fill-rule="evenodd" clip-rule="evenodd" fill="#464B4E" d="M1338.399,170.232c0.341-11.893,6.611-21.188,15.248-23.249
			c12.163-2.901,22.008,2.858,25.624,14.984c2.129,7.136,1.547,14.133-1.687,20.743c-3.804,7.779-12.693,12.445-20.487,11.2
			c-9.42-1.505-16.605-8.579-18.096-17.906C1338.663,173.878,1338.55,171.715,1338.399,170.232z"/>
		<path fill-rule="evenodd" clip-rule="evenodd" fill="#FCFCFC" d="M1115.126,270.493c0.001-8.148,0.227-16.306-0.102-24.441
			c-0.147-3.675,1.325-5.301,4.432-6.652c14.193-6.178,27.415,0.006,31.355,15.103c2.813,10.776,2.841,21.737,0.037,32.5
			c-4.755,18.253-19.493,20.054-32.213,15.143c-2.699-1.042-3.645-2.772-3.579-5.711
			C1115.248,287.791,1115.125,279.141,1115.126,270.493z"/>
		<path fill-rule="evenodd" clip-rule="evenodd" fill="#FDFDFD" d="M977.738,271.057c-0.276-8.051,0.507-15.944,4.104-23.285
			c3.252-6.639,8.493-10.65,16.078-10.653c7.612-0.003,13.26,3.938,16.007,10.729c6.232,15.408,6.21,31.141-0.114,46.52
			c-2.71,6.591-8.225,10.468-15.645,10.469c-7.328,0.001-12.62-3.731-15.972-10.098
			C978.297,287.334,977.463,279.281,977.738,271.057z"/>
		<path fill-rule="evenodd" clip-rule="evenodd" fill="#FCFCFC" d="M1473.268,249.377c0.553,1.927-0.829,2.284-2.162,2.542
			c-11.553,2.238-23.114,4.429-34.664,6.682c-1.873,0.365-2.26-0.253-2.15-2.075c0.828-13.872,10.287-22.438,23.902-21.534
			C1465.371,235.468,1473.052,242.798,1473.268,249.377z"/>
	</g>
</g>
</svg>
