<?xml version="1.0" encoding="utf-8"?>
<!-- Generator: Adobe Illustrator 16.0.3, SVG Export Plug-In . SVG Version: 6.00 Build 0)  -->
<!DOCTYPE svg PUBLIC "-//W3C//DTD SVG 1.1//EN" "http://www.w3.org/Graphics/SVG/1.1/DTD/svg11.dtd">
<svg version="1.1" xmlns="http://www.w3.org/2000/svg" xmlns:xlink="http://www.w3.org/1999/xlink" x="0px" y="0px" width="609px"
	 height="160px" viewBox="117.445 222.14 609 160" enable-background="new 117.445 222.14 609 160" xml:space="preserve">
<g id="layer">
	<path fill="#FFFFFF" d="M428.557,294.201c-1.829,0-3.049-1.372-3.049-3.049c0-1.677,1.22-3.125,3.126-3.125
		c1.829,0,3.049,1.372,3.049,3.125C431.76,292.829,430.541,294.201,428.557,294.201 M451.882,294.201
		c-1.828,0-3.048-1.372-3.048-3.049c0-1.677,1.22-3.125,3.124-3.125c1.83,0,3.05,1.372,3.05,3.125
		C455.084,292.829,453.942,294.201,451.882,294.201 M267.036,326.444h-4.955v-38.341h5.031v38.341 M313.762,326.444h-4.878v-15.55
		c0-5.336-1.981-8.461-5.945-8.461c-2.896,0-5.031,2.134-5.945,4.497c-0.229,0.762-0.381,1.602-0.381,2.516v16.998h-4.878v-16.541
		c0-4.345-1.906-7.546-5.717-7.546c-3.049,0-5.412,2.515-6.174,5.029c-0.304,0.687-0.38,1.602-0.38,2.439v16.618h-4.878V306.32
		c0-2.896-0.077-5.183-0.229-7.47h4.421l0.229,4.497h0.152c1.524-2.592,4.116-5.03,8.689-5.03c3.735,0,6.555,2.286,7.775,5.488
		h0.076c0.839-1.601,1.982-2.744,3.126-3.583c1.676-1.22,3.43-1.905,6.021-1.905c3.735,0,9.147,2.362,9.147,11.968v16.159
		 M359.574,326.444h-4.879v-15.55c0-5.336-1.981-8.461-5.945-8.461c-2.897,0-5.031,2.134-5.946,4.497
		c-0.229,0.762-0.381,1.602-0.381,2.516v16.998h-4.878v-16.541c0-4.345-1.906-7.546-5.717-7.546c-3.049,0-5.412,2.515-6.174,5.029
		c-0.305,0.687-0.381,1.602-0.381,2.439v16.618h-4.878V306.32c0-2.896-0.076-5.183-0.229-7.47h4.421l0.229,4.497h0.153
		c1.524-2.592,4.116-5.03,8.689-5.03c3.735,0,6.556,2.286,7.775,5.488h0.076c0.839-1.601,1.982-2.744,3.125-3.583
		c1.677-1.22,3.43-1.905,6.021-1.905c3.735,0,9.147,2.362,9.147,11.968v16.159 M431.225,326.444h-5.03V298.85h5.03V326.444
		 M442.813,326.444h-5.032v-40.4h5.032V326.444 M454.551,326.444h-5.032V298.85h5.032V326.444 M511.415,326.444h-5.03v-15.854
		c0-4.422-1.678-8.156-6.403-8.156c-3.277,0-5.794,2.362-6.709,5.106c-0.228,0.61-0.303,1.448-0.303,2.363v16.541h-5.032V306.32
		c0-2.896-0.075-5.183-0.229-7.47h4.421l0.305,4.573h0.153c1.371-2.592,4.574-5.106,9.071-5.106c3.811,0,9.756,2.286,9.756,11.739
		V326.444 M377.487,302.051c-5.869,0-8.461,5.488-8.461,10.673c0,6.021,3.43,10.594,8.309,10.594c4.802,0,8.385-4.497,8.385-10.671
		C385.795,307.921,383.432,302.051,377.487,302.051 M377.182,327.053c-7.394,0-13.187-5.488-13.187-14.178
		c0-9.146,6.098-14.559,13.645-14.559c7.927,0,13.263,5.717,13.263,14.102C390.903,322.633,383.737,327.053,377.182,327.053
		 M408.282,302.281c-3.354,0-6.555,2.362-7.546,6.174c-0.153,0.61-0.305,1.297-0.305,2.135v4.879c0,0.608,0.077,1.218,0.229,1.828
		c0.915,3.507,3.887,5.87,7.546,5.87c5.259,0,8.385-4.27,8.385-10.596C416.59,307.006,413.694,302.281,408.282,302.281
		 M409.197,327.053c-3.964,0-7.165-1.524-9.3-5.106h-0.153l-0.305,4.497h-4.269c0.077-1.906,0.23-4.65,0.23-7.088v-33.312h4.954
		v17.303h0.077c1.753-3.049,4.954-5.03,9.376-5.03c6.86,0,11.662,5.717,11.662,14.025
		C421.621,322.175,415.371,327.053,409.197,327.053 M471.701,301.899c-5.107,0-7.316,4.65-7.698,8.08h14.635
		C478.714,306.854,477.343,301.899,471.701,301.899 M472.692,327.053c-8.461,0-13.568-5.64-13.568-13.949
		c0-8.309,4.879-14.787,12.959-14.787c9.071,0,11.357,7.851,11.357,12.957c0,0.991-0.077,1.755-0.152,2.364h-19.361
		c0.153,6.784,4.422,9.528,9.452,9.528c3.583,0,5.792-0.61,7.622-1.448l0.915,3.582
		C480.163,326.062,477.113,327.053,472.692,327.053"/>
	<line fill="none" stroke="#6D6E70" stroke-width="2.1484" x1="577.349" y1="261.042" x2="577.349" y2="352.056"/>
	<polyline fill="none" stroke="#6D6E70" stroke-width="2.1484" points="558.673,339.097 546.478,339.097 531.995,296.03 
		540.228,290.313 550.594,291.38 	"/>
	<line fill="none" stroke="#6D6E70" stroke-width="2.1484" x1="551.967" y1="339.097" x2="540.379" y2="290.313"/>
	<polyline fill="none" stroke="#6D6E70" stroke-width="2.1484" points="596.102,339.097 608.297,339.097 622.781,296.03 
		614.472,290.313 604.181,291.38 	"/>
	<line fill="none" stroke="#6D6E70" stroke-width="2.1484" x1="602.808" y1="339.097" x2="614.396" y2="290.313"/>
	<polygon fill="none" stroke="#6D6E70" stroke-width="2.1484" points="577.349,351.674 595.187,344.356 605.553,281.928 
		577.349,261.042 549.222,281.928 559.588,344.356 	"/>
</g>
<g id="Capa_2">
</g>
</svg>
