<?xml version="1.0" encoding="utf-8"?>
<!-- Generator: Adobe Illustrator 23.0.0, SVG Export Plug-In . SVG Version: 6.00 Build 0)  -->
<svg version="1.1" id="layer" xmlns="http://www.w3.org/2000/svg" xmlns:xlink="http://www.w3.org/1999/xlink" x="0px" y="0px"
	 viewBox="0 0 652 652" style="enable-background:new 0 0 652 652;" xml:space="preserve">
<style type="text/css">
	.st0{fill:#231815;}
</style>
<g>
	<path class="st0" d="M19.7,445.1H0V238c16.5-5.1,32.8-7.7,48.8-7.7c11.6,0,22.2,1.8,31.7,5.4c9.5,3.6,17.6,8.7,24.3,15.1
		c6.7,6.5,12,14.1,15.5,23.1c3.6,8.9,5.4,18.7,5.4,29.1c0,12.7-2.2,23.7-6.5,32.8c-4.3,9.1-10.1,16.6-17.3,22.5
		c-7.2,5.9-15.2,10.2-24.3,12.9c-9.1,2.7-18.5,4.1-27.9,4.1c-5.1,0-10.2-0.4-15.1-1.1c-5-0.8-9.9-1.8-14.9-3.2L19.7,445.1
		L19.7,445.1z M103.3,302.7c0-16.5-4.7-29.9-13.8-40.1c-9.2-10.2-22.2-15.2-38.9-15.2c-5.3,0-10.5,0.3-15.8,1
		c-5.1,0.7-10.2,1.8-15.1,3.6v101c4.6,1.5,9.2,2.8,14.1,3.9s9.6,1.5,14.1,1.5c17,0,30.4-4.8,40.4-14.5
		C98.3,334.4,103.3,320.7,103.3,302.7"/>
	<rect x="165.8" y="174.6" class="st0" width="20" height="199.7"/>
	<path class="st0" d="M348.9,353.5c-6.6,7.3-14.3,12.7-23.1,16.4c-8.8,3.7-19.3,5.5-31.7,5.5c-11.4,0-21.4-2-30-5.9
		c-8.6-3.9-15.6-9.1-21.4-15.9c-5.7-6.6-10-14.2-12.8-22.8c-2.8-8.6-4.2-17.6-4.2-27.1c0-12.6,1.7-23.5,5.1-32.7
		c3.5-9.2,8-16.8,14-22.9c5.9-6.1,12.7-10.6,20.5-13.6c7.8-2.9,16.1-4.5,24.8-4.5c21,0,36.7,6.4,47.4,19.2
		c10.6,12.8,15.8,31.5,15.4,56.1h-107c0.5,16.2,5.2,29,14,38.6c8.8,9.6,20.6,14.2,35.6,14.2c8.4,0,16-1.4,22.8-4.1
		c6.8-2.7,13-7.2,18.6-13.3L348.9,353.5z M333,288.7c0-5.9-0.9-11.4-2.7-16.5c-1.8-5.1-4.3-9.5-7.7-13.1c-3.4-3.6-7.7-6.5-12.9-8.7
		c-5.3-2.2-11.5-3.3-18.6-3.3c-7.3,0-13.5,1.1-18.7,3.3c-5.2,2.2-9.3,5-12.4,8.5c-3,3.4-5.9,7.7-8.5,12.9c-2.6,5.2-4.2,10.9-5,17
		L333,288.7L333,288.7z"/>
	<path class="st0" d="M483.7,265.4c-5-6.3-10.3-10.9-16.2-13.8c-5.8-2.9-12.6-4.5-20.6-4.5c-10.2,0-17.3,1.8-21.4,5.4
		c-4.1,3.6-6.1,8.1-6.1,13.7c0,3.8,1,7.1,2.8,9.7c1.8,2.6,4.3,5,7.5,6.8c3,2,6.6,3.6,10.8,5c4.1,1.4,8.4,2.8,12.7,4.1
		c5.3,1.7,10.8,3.6,16.1,5.5c5.4,2,10.3,4.6,14.8,7.8c4.5,3.3,8.2,7.2,10.9,11.8c2.8,4.7,4.2,10.5,4.2,17.5c0,6.5-1.4,12.3-4.2,17.4
		c-2.8,5.1-6.6,9.5-11.4,12.9c-4.8,3.6-10.4,6.2-16.8,8c-6.5,1.8-13.4,2.7-20.8,2.7c-11.3,0-21.4-1.8-30.2-5.5
		c-8.8-3.7-17.1-9.9-24.8-18.4l15.5-13.7c10.3,13.3,23.8,20,40.3,20c10.8,0,18.7-2,23.9-6c5.2-4,7.7-8.9,7.7-14.6c0-4.3-1-8-2.8-11
		s-4.5-5.4-7.7-7.6c-3.3-2.1-7.1-3.8-11.4-5.3c-4.3-1.4-8.8-2.8-13.6-4.1c-5.4-1.5-10.8-3.3-16-5.1c-5.3-1.8-10-4.3-14.2-7.3
		c-4.2-2.9-7.6-6.7-10.3-11.3c-2.7-4.6-4-10.3-4-17.4c0-12.6,4.6-22.3,13.8-29.1c9.1-6.8,21-10.3,35.5-10.3
		c10.3,0,19.6,1.7,27.6,5.1c8,3.5,15.8,9.5,23.1,17.9L484,265.7L483.7,265.4z"/>
	<path class="st0" d="M536.7,175h20v199.4h-20V175z M556.7,300.8l68.5-69.1H652l-70.2,68.5l69.9,74.2H624L556.7,300.8z"/>
	<rect x="115.1" y="426.3" class="st0" width="120.2" height="18.8"/>
</g>
</svg>
