<?xml version="1.0" encoding="utf-8"?>
<!-- Generator: Adobe Illustrator 23.0.0, SVG Export Plug-In . SVG Version: 6.00 Build 0)  -->
<svg version="1.1" id="Capa_1" xmlns="http://www.w3.org/2000/svg" xmlns:xlink="http://www.w3.org/1999/xlink" x="0px" y="0px"
	 viewBox="0 0 2500 2500" style="enable-background:new 0 0 2500 2500;" xml:space="preserve">
<style type="text/css">
	.st0{fill:#C4B6A1;}
	.st1{fill:#AA9678;}
	.st2{fill:#786453;}
	.st3{fill:#525353;}
	.st4{fill:#FFFFFF;}
	.st5{fill:#BBBCBD;}
	.st6{fill:#FCB03F;}
</style>
<path class="st0" d="M732.8,2236c0.8-0.6,1.6-1.1,2.4-1.7h-2.3C732.9,2234.9,732.8,2235.5,732.8,2236"/>
<path class="st1" d="M1767.1,2234.4h-2.3l2.4,1.7C1767.2,2235.5,1767.1,2234.9,1767.1,2234.4"/>
<path d="M1764.5,2230.5l-515.6,0.6l1.1,268.9c191.9,0,373.6-43.3,536.1-120.6c-10.6-46.6-11.7-96.8-13.4-145.6
	C1771.9,2233.2,1764.5,2230.5,1764.5,2230.5"/>
<path d="M1249.2,2232.2c0,0-518.4-0.7-519.2-0.1c-1.7,48.9-11.8,106.8-16,147.3c162.5,77.3,344.2,120.6,536.1,120.6l0.3-266.9
	L1249.2,2232.2"/>
<path class="st2" d="M1250,2208.5L1250,2208.5l0,25.9h0V2208.5z"/>
<path class="st3" d="M1607.9,2004.3"/>
<path class="st1" d="M1636.7,2032.8l0.3,0.8L1636.7,2032.8c0,0-12.7-10-28.8-28.6C1624,2022.8,1636.7,2032.8,1636.7,2032.8"/>
<path class="st4" d="M2018.6,901.8L2018.6,901.8L2018.6,901.8 M2068.9,1261.7l0-0.4L2068.9,1261.7"/>
<path class="st5" d="M2068.9,1261.4l0-0.3L2068.9,1261.4"/>
<path d="M2067.5,1281c0.1-0.6,0.3-1.2,0.3-1.9c0.6-4.7,0.8-9.6,0.9-14.5c0-1.1,0.2-2.2,0.2-3.3c0-1-0.2-2-0.2-3.1
	c-0.1-4.9-0.4-9.9-0.9-14.8c-0.1-0.6-0.2-1.1-0.3-1.6c-0.7-5.1-1.6-10.1-2.9-15.1c-0.4-1.7-1-3.2-1.5-4.8c-3-9.8-7-18.4-11.8-25.6
	c-1.8-2.7-3.8-5.3-6-7.8c-2-2.2-4.1-4.2-6.5-6c-0.9-0.7-1.8-1.1-2.6-1.7c-2.7-1.8-5.6-3.2-8.7-4.2c-2.9-1-5.9-1.5-9-1.5
	c-3.1,0-6,0.6-9,1.5c-3.1,1-6,2.4-8.7,4.2c-0.9,0.6-1.8,1-2.6,1.7c-4,3.1-7.6,6.9-10.5,11c-0.7,0.9-1.3,1.9-2,2.8
	c-4.8,7.2-8.8,15.8-11.8,25.6l-0.4,1.2c-1.3,4.5-2.3,9.2-3.2,14.1c-0.3,1.5-0.6,2.9-0.8,4.4c-0.8,5.4-1.2,11.1-1.3,16.9
	c0,0.8-0.1,1.6-0.1,2.4h0.2c0,47.6,22.5,86.2,50.3,86.2c4.8,0,9.4-1.3,13.8-3.4c2.6-1.3,5.1-2.9,7.4-4.7c0.9-0.8,1.8-1.7,2.7-2.5
	c2.2-2.1,4.3-4.4,6.3-7c1.4-1.8,2.8-3.7,4-5.7c0.8-1.3,1.6-2.7,2.3-4.1c1.4-2.6,2.7-5.3,3.9-8.2c0.4-1,0.9-2,1.3-3.1
	c1.5-4,2.9-8.2,4-12.6C2065.9,1291.1,2066.8,1286.1,2067.5,1281L2067.5,1281z M2020.4,1249.9c-10.4,0-18.9-14.5-18.9-32.3
	c0-17.8,8.4-32.3,18.9-32.3c10.4,0,18.9,14.5,18.9,32.3C2039.3,1235.4,2030.8,1249.9,2020.4,1249.9z"/>
<path class="st4" d="M2020.4,1185.2c-10.4,0-18.9,14.5-18.9,32.3c0,17.9,8.4,32.3,18.9,32.3c10.4,0,18.9-14.5,18.9-32.3
	C2039.3,1199.7,2030.8,1185.2,2020.4,1185.2"/>
<path d="M1428.7,1259.5c-0.1-4.1-0.3-8.2-0.8-12.1c0,0,0-0.1,0-0.2c-0.5-3.9-1.1-7.8-2-11.6l-0.1-0.3c-0.8-3.7-1.9-7.4-3.1-11.1
	l-0.1-0.2c-1.2-3.6-2.6-7.2-4.1-10.6c0-0.1-0.1-0.1-0.1-0.2c-12.4-27.6-34.9-49.4-62.9-60.9l-0.3-0.1c-6.8-2.8-13.9-4.9-21.1-6.4
	c-0.2,0-0.4,0-0.5-0.1c-7.4-1.5-15-2.2-22.6-2.2c-7.6,0-15,0.8-22.2,2.2l-0.8,0.1c-7.2,1.4-14.1,3.5-20.7,6.2l-0.5,0.2
	c-6.7,2.7-13.1,6.1-19.2,10c-6.1,3.9-11.8,8.4-17.1,13.3l-0.1,0.4l-0.4,0.1c-8.4,8-15.6,17.2-21.4,27.3l-0.2,0.4
	c-1.8,3.1-3.3,6.3-4.8,9.6c-0.2,0.4-0.4,0.7-0.5,1c-1.3,3-2.5,6.2-3.6,9.3c-0.2,0.6-0.5,1.2-0.7,1.8c-0.9,3-1.7,6-2.4,9
	c-0.2,0.9-0.5,1.7-0.7,2.6c-0.6,3-1.1,6.1-1.5,9.2c-0.1,0.9-0.3,1.9-0.4,2.8c-1.2,11.7-0.7,23.5,1.6,35c0,0.1,0,0.3,0.1,0.5
	c1.5,7.4,3.6,14.4,6.4,21.2c0,0.1,0.1,0.2,0.1,0.3c5.6,13.6,13.8,26.1,24,36.7c8,8.3,17.2,15.5,27.4,21.2l0.1,0.1
	c3.2,1.8,6.4,3.4,9.8,4.9c0.3,0.1,0.5,0.3,0.8,0.4c3.1,1.3,6.3,2.5,9.5,3.6c0.5,0.2,1.1,0.4,1.6,0.6c3,0.9,6,1.7,9.1,2.4
	c0.8,0.2,1.6,0.5,2.5,0.6c3,0.6,6,1,9.1,1.4c0.9,0.1,1.8,0.3,2.8,0.4c27.5,2.9,55.1-4,78.1-19.5c12.5-8.5,23.3-19.3,31.8-31.8
	c13.1-19.4,20.1-42.4,20.1-65.8c0-0.3,0-0.5,0-0.8C1428.7,1260,1428.7,1259.8,1428.7,1259.5L1428.7,1259.5z M1311,1245.7
	c-24.4,0-44.2-19.8-44.2-44.2c0-24.4,19.8-44.2,44.2-44.2s44.2,19.8,44.2,44.2C1355.3,1225.9,1335.5,1245.7,1311,1245.7z"/>
<path class="st4" d="M1311,1157.2c-24.4,0-44.3,19.8-44.3,44.2c0,24.4,19.8,44.3,44.2,44.3c0,0,0,0,0.1,0
	c24.4,0,44.2-19.8,44.2-44.3C1355.2,1177,1335.4,1157.2,1311,1157.2"/>
<path class="st6" d="M1670.7,1060.1c-0.1,0.1-0.1,0.2-0.2,0.3L1670.7,1060.1"/>
<path d="M458.7,1388.4l0.9-2.2c13.5-35,29-69.1,46.6-102.3c2.7-5.2,5.4-10.3,8.2-15.4c1.6-2.8,3.3-5.5,4.9-8.3
	c7.1-12.6,14.3-25.2,22-37.4c1.8-2.9,3.7-5.8,5.6-8.6c9.5-14.8,19.5-29.3,29.8-43.4c0.9-1.2,1.7-2.5,2.7-3.8
	c10.9-14.6,22.3-28.9,34.2-42.8c2.5-3,5-6,7.6-8.9c11.7-13.5,23.9-26.6,36.5-39.2c2.5-2.5,5-4.9,7.5-7.3
	c13.3-13.2,27.1-25.9,41.3-38.1l0.1-0.1c56.2-188.1,237.5-303.7,440.8-303.7c81.8,0,163.2,23.6,233,66.2
	c71.5,43.8,120.3,86.5,158.2,161.3l0.6,1.1c1,1.9,2,3.7,3,5.6l0.1,0.2l0.2,0.1c31.8,19.7,62.1,41.7,90.6,65.9
	c9.6,8.1,19,16.4,28.2,24.9c3,2.8,6.2,5.4,9.2,8.3c0.1-0.1,0.1-0.2,0.2-0.3c0-0.1,0.1-0.2,0.1-0.2c1-2.1,2.1-4.3,3.1-6.4
	c28.7-180.8,119.7-279.4,213.8-279.4c70.9,0,122.5,42.3,161.4,156.1l0.4,1.2l0.1,0.1c11.5,12.5,22.2,25.7,32.1,39.5l0,0
	c0.2,0.3,0.4,0.5,0.6,0.8l0,0l0,0c0.6,1.7,1,3.3,1.6,5v0l-1.5-5.9c-117-346.5-444.8-596-830.8-596c-484.2,0-876.7,392.5-876.7,876.7
	c0,95.4,15.3,187.3,43.6,272.9l0.1-0.5C428.6,1477.8,442,1432.5,458.7,1388.4"/>
<path d="M1767.9,918.3c35.7-35,83.5-63.3,134.8-63.3c40.6,0,79.5,16.4,115.9,46.5l0,0.4v0.1v-0.1c3.3,2.7,6.5,5.7,9.7,8.6
	c1.9,1.8,3.9,3.4,5.9,5.2c5.2,5,10.3,10.2,15.1,15.5l0.3,0.3c0,0-0.1-0.1-0.1-0.1l0,0l-0.4-1.2c-38.9-113.8-101.8-187.8-172.7-187.8
	c-94.1,0-173.9,130.3-202.5,311.1l0.3-0.3C1698.6,1004.6,1728.8,956.5,1767.9,918.3 M1640.8,2029.6c0,0-12.7-10-28.8-28.5
	c-7.5-8.6-14.5-17.5-20.9-26.9c-2.1-3-4.1-6.1-6.1-9.3c-6.1-9.6-10.9-21.3-16.3-32.9c-6.2-13.4-6.2-22.3-9.8-34.8
	c-2.6-9.2-4.7-18.5-6.2-28c-2.5-15.3-3.5-30.7-3-46.2c0.3-8.9,1.2-18.1,2.5-27.5c1.3-9.3,3.1-18.6,5.4-27.7
	c7.1-28.3,19.3-58.5,38.5-90.4l4.9-10.9c6.3-10.4,7.6-10,13.6-20c83.6-141.1,128.8-247.9,106.7-412.2c-2.4-16.8-5.2-33.6-8.2-50.4
	c-1.9,12.1-4,24.2-6.1,36.3c-0.8,3.8-3.1,7.8-4,10.4c-36.3,107.5-93.5,186.6-175.8,275.9c-11.5,12.4-23.1,24.6-34.8,36.8
	c-21,21.7-42.1,43.1-63.5,64.4c-8.9,8.9-18,17.8-27.2,27c-8.5,8.4-19,26.4-31.6,39.6c-7.8,21.8-16.6,46.3-24.1,72.1
	c-3.4-1.3-6.6-2.4-10-3.8c-159.8-61.8-266.9-144.4-266.9-144.4s82.3,107.2,221.1,207.9c12.8,9.2,26,17.8,39.6,25.7
	c-5.7,90.6,34.2,177.5,214.6,203.5c30.5,4.4,61.7,4.2,93.2,0.6c-0.3-0.9,1.8-0.9,1.6-1.4c-0.2-0.5,1.7-1.9,1.7-1.9"/>
<path d="M1544.3,1796.5c160.1,25.8,397.1,21.6,643.2-93.6c5.9-2.8,12.5,4.5,18.4,1.6c0,0-168.2,171.7-369,268.8
	c-5.9,2.8-11.7,5.8-17.6,8.5c-19.4,8.9-39.1,16.6-59,23.7c-38.9,14-78.2,24.6-117.3,29.5c-1.8,0.2-3.6,0.6-5.4,0.8
	c-0.2-0.7-0.5-1.5-0.7-2.2l-0.3-0.8c0,0-12.7-10-28.8-28.6c-7.5-8.6-14.5-17.5-20.9-26.9c-9-13-16.8-26.8-23.4-41.1
	c-5.6-12.1-10.3-24.6-13.9-37.5c-6.9-24.1-10-49.1-9.2-74.1c0.3-9.2,1.2-18.4,2.5-27.5L1544.3,1796.5"/>
<path d="M1429.6,1614.2c21.4-21.2,42.6-42.7,63.5-64.4c11.7-12.1,23.3-24.4,34.8-36.8c82.3-89.3,142.7-172.9,179-280.4
	c0.8-2.5,1.7-5.9,2.5-9.7l0.4-1.7c0.8-4,1.7-8.5,2.5-13.5c0.3-3.5,11.2-10.5,11.5-13.7c-9.1-46.8-30.1-96-53-133.6
	c0.1,0.2,0.1,0.3,0.2,0.5l-0.4-0.4c-3-2.8-6.1-5.5-9.2-8.3c-9.2-8.5-18.6-16.8-28.2-24.9c-28.5-24.2-58.8-46.2-90.6-65.9
	c1.6,26.3,2.6,52.6,2.9,78.8c0,2.9,0,5.9,0,8.8c0,10.2,0.1,20.4-0.1,30.6c-0.3,13.1-0.7,26.2-1.4,39.3c-0.5,9.7-1.1,19.4-1.9,29
	c-0.1,1-0.2,2-0.3,3c-2.9,36.6-7.6,73.1-14.2,109.2l-11.6,54.7c-24.2,97.9-73.2,186.7-113.5,278.4c-10.7,24.3-20.8,48.9-29.7,74
	l-2.5,7.1c10.6-11.2,21.3-22.2,32.2-33.1C1411.6,1632,1420.7,1623,1429.6,1614.2"/>
<path d="M2026.9,1458.8c-16-21-32.2-42-48.5-62.8l-2.5-3.2c-17.4-22.2-35.1-44.2-52.9-66c-18.2-22.2-36.6-44.1-55.3-65.7
	c-1.2-1.4-2.4-2.8-3.6-4.1c-15.4-17.7-31.1-35.3-47-52.6c-9.7-10.6-19.5-21.1-29.4-31.5c-7.7-8.1-15.5-16-23.3-24
	c-7.4-7.5-14.7-15-22.2-22.4c-16-15.9-32.4-31.4-49-46.7c-7.4-6.7-14.8-13.3-22.3-19.9c0,0.1-0.1,0.2-0.1,0.2
	c15.8,45.5,33.9,91.6,43,139.1c2.4,12.4,4.3,24.4,5.9,36.1c22.1,164.3-30.6,271.6-114.2,412.8c-6.1,10.3-12.3,20.6-18.4,30.9
	c-19.1,31.9-31.4,62.1-38.5,90.4c-2.3,9.1-4.1,18.4-5.4,27.7c164,26.5,410.6,31.4,662.9-92.6c0,0-49.5-72.7-123.9-172.7
	c-16.7-22.4-33.5-44.7-50.3-66.9C2030.1,1462.8,2028.5,1460.8,2026.9,1458.8"/>
<path d="M2066.3,2196.2c-103.8-119-232.4-213.9-376.7-278l77.6,266.8l22,1c14.3,0,24.3,3.8,24.3,18c0,23.8,1.2,50.4,3.5,73.7
	c1.6,1.3,3.1,2.7,4.7,4l4.8,42.9v0c5.1,25.4,6.2,30.4,7.1,30.6c14.9-7.9,29.6-16.1,44.1-24.6v0
	C1944.7,2291.8,2007.8,2246.7,2066.3,2196.2z"/>
<polygon points="1689.7,1918.1 1689.7,1918.1 1689.7,1918.1 "/>
<polygon points="622.1,2330.7 622.1,2330.7 622.1,2330.7 "/>
<path d="M732.4,1956.7c-112.7,61.4-214.3,142.8-298.7,239.5c39,33.7,80.1,64.9,122.9,93.6c14.2,9.5,50.8,42.6,65.6,40.9h0h0
	c14.5,8.5,29.2,16.7,44.1,24.6c5.2-25,13.6-59.8,16.1-85.5c-0.6,0.5-1.3,1.1-1.9,1.7c1-24.8-3.7-68.4,15.1-82.6
	c9.3-7,28.8,1.9,36.3-4.6c12.1-10.4,17.6-59.6,22-74.4c11.4-38.5,22.7-77,34.1-115.5C768.9,1982.5,750.4,1969.9,732.4,1956.7z"/>
<path d="M1608.8,2146.6l-25.8-84.1c-177,72.5-376,85-560.7,35.8c-1,0.3-2.1,0.5-3.1,0.8c-28.1-7.6-55.9-16.7-83.2-27.1l0,0
	c-7.1-2.7-14.1-5.6-21.1-8.5l-25.3,79.3c-0.8,0.3-1.6,0.7-2.3,1l-6.2,38.9h737.8l-11.1-36.4
	C1608.2,2146.3,1608.5,2146.5,1608.8,2146.6z"/>
</svg>
